<svg xmlns="http://www.w3.org/2000/svg" width="155.583" height="87.516" viewBox="0 0 155.583 87.516">
  <g id="Group_1098" data-name="Group 1098" transform="translate(-25 1139)">
    <path id="Path_3184" data-name="Path 3184" d="M364.113-737.457a2.633,2.633,0,0,1,.755.146,2.438,2.438,0,0,1,.878.512,3.443,3.443,0,0,1,.731.951,3.044,3.044,0,0,1,.317,1.463,20.663,20.663,0,0,1-.414,3.632,42.124,42.124,0,0,1-1.195,4.729,50.141,50.141,0,0,1-1.877,5.046,28.012,28.012,0,0,1-2.461,4.558,14.713,14.713,0,0,1-2.95,3.291,5.272,5.272,0,0,1-3.34,1.267,4.3,4.3,0,0,1-2.194-.536,4.736,4.736,0,0,1-1.536-1.414,6.247,6.247,0,0,1-.9-1.974,8.761,8.761,0,0,1-.292-2.267,14.1,14.1,0,0,1,.17-1.877q.171-1.193.463-2.608-.829,1.658-1.657,3.267t-1.512,2.925q-.683,1.316-1.146,2.17a7.787,7.787,0,0,1-.56.951.874.874,0,0,1-.634.2h-3.949a.408.408,0,0,1-.219-.049,1.506,1.506,0,0,0-.171-.1.529.529,0,0,1-.146-.39.532.532,0,0,1,.049-.244q1.218-5.558,2.194-10.043.39-1.9.78-3.754t.707-3.364q.316-1.511.511-2.511a9.563,9.563,0,0,0,.2-1.243,2.248,2.248,0,0,0-.073-.633.306.306,0,0,0-.317-.244,6.073,6.073,0,0,0-1.78.292,5.933,5.933,0,0,0-1.755.878,5.032,5.032,0,0,0-1.341,1.463,3.942,3.942,0,0,0-.536,2.1,2.337,2.337,0,0,0,.244,1.243,1.356,1.356,0,0,1,.244.463c0,.163-.122.292-.366.39a2.445,2.445,0,0,1-.9.146,2.424,2.424,0,0,1-.732-.146,2.744,2.744,0,0,1-.877-.512,3.2,3.2,0,0,1-.756-.951,3.038,3.038,0,0,1-.317-1.462,4.226,4.226,0,0,1,.561-2.047,5.663,5.663,0,0,1,1.779-1.877,9.9,9.9,0,0,1,3.145-1.365,18.345,18.345,0,0,1,4.656-.512,3.981,3.981,0,0,1,1.511.243,2.167,2.167,0,0,1,.878.609,2,2,0,0,1,.39.756,2.9,2.9,0,0,1,.1.682,10.431,10.431,0,0,1-.22,1.341q-.219,1.1-.56,2.755t-.78,3.657q-.44,2-.878,4.046t-.853,3.9q-.415,1.853-.707,3.218.536-1.12,1.365-2.8t1.731-3.559q.9-1.876,1.853-3.778t1.755-3.461q.8-1.56,1.341-2.584a7.669,7.669,0,0,1,.682-1.17.8.8,0,0,1,.586-.195h1.608a.6.6,0,0,1,.561.293,2.705,2.705,0,0,1,.22.439q-.877,3.218-1.512,6.094-.292,1.219-.536,2.486t-.463,2.413q-.219,1.146-.341,2.1a12.611,12.611,0,0,0-.122,1.536,4.146,4.146,0,0,0,.512,2.365,1.464,1.464,0,0,0,1.195.707,3.37,3.37,0,0,0,2.437-1.146,12.543,12.543,0,0,0,2.072-2.949,25.576,25.576,0,0,0,1.682-4.071q.731-2.267,1.218-4.461t.756-4.12a23.69,23.69,0,0,0,.268-3.1,2.21,2.21,0,0,0-.244-1.219,1.074,1.074,0,0,1-.244-.488q0-.244.366-.366a2.9,2.9,0,0,1,.9-.122" transform="translate(-283.263 -373.741)" fill="#24242c"/>
    <path id="Path_3185" data-name="Path 3185" d="M722.754-618.581a4.111,4.111,0,0,0,.292,1.585,1,1,0,0,0,.975.707,1.672,1.672,0,0,0,1.268-.683,6.852,6.852,0,0,0,1.023-1.657,4.451,4.451,0,0,1,.073-2.218,3.274,3.274,0,0,1,.8-1.536,3.5,3.5,0,0,0-.244-1.39.918.918,0,0,0-.927-.56,1.849,1.849,0,0,0-1.292.585,5.375,5.375,0,0,0-1.048,1.438,8.356,8.356,0,0,0-.683,1.853,7.917,7.917,0,0,0-.244,1.877m6.435,2.1a3.4,3.4,0,0,1-1.317-.195A8.19,8.19,0,0,1,726-614.34a3.782,3.782,0,0,1-2.511.926,3.867,3.867,0,0,1-2.974-1.341,5.12,5.12,0,0,1-1.218-3.583,11.977,11.977,0,0,1,.487-3.437,10.2,10.2,0,0,1,1.341-2.876,7.307,7.307,0,0,1,2-2,4.39,4.39,0,0,1,2.462-.756,3.471,3.471,0,0,1,2.779,1.267,5.193,5.193,0,0,1,1.073,3.462,11.506,11.506,0,0,1-.439,3.023,1.23,1.23,0,0,0,.975.585,1.934,1.934,0,0,0,1.536-.585,2.417,2.417,0,0,0,.609-1.121.555.555,0,0,1,.195-.2,1.208,1.208,0,0,1,.683-.195,1.3,1.3,0,0,1,.731.195,1.739,1.739,0,0,1,.244.2,5.13,5.13,0,0,1-.464,1.341,6.165,6.165,0,0,1-.951,1.414,4.9,4.9,0,0,1-1.438,1.1,4.149,4.149,0,0,1-1.926.439" transform="translate(-636.006 -474.919)" fill="#24242c"/>
    <path id="Path_3186" data-name="Path 3186" d="M862.2-627.226a.8.8,0,0,1,.049-.244.721.721,0,0,1,.2-.341.7.7,0,0,1,.585-.2h2.291a.527.527,0,0,1,.39.146.566.566,0,0,1,.1.39v.244l-.1.293a2.926,2.926,0,0,1,.829-.488,5.674,5.674,0,0,1,1.023-.366,5.88,5.88,0,0,1,1.512-.17,3.419,3.419,0,0,1,2.413.877,2.706,2.706,0,0,1,.951,2.047,5.71,5.71,0,0,1-.171,1.1q-.172.756-.39,1.682t-.39,1.852a8.829,8.829,0,0,0-.17,1.56,1.4,1.4,0,0,0,.317.951,1.07,1.07,0,0,0,.853.366,1.645,1.645,0,0,0,1.292-.585,5.575,5.575,0,0,0,.853-1.316,7.693,7.693,0,0,0,.585-1.9.559.559,0,0,1,.2-.195,1.126,1.126,0,0,1,.634-.195,1.741,1.741,0,0,1,.78.195,1.741,1.741,0,0,1,.244.195,16.058,16.058,0,0,1-1.122,3.706,9.183,9.183,0,0,1-1.682,2.535,3.594,3.594,0,0,1-2.755,1.121,3.752,3.752,0,0,1-1.609-.341,4.167,4.167,0,0,1-1.268-.9,4.047,4.047,0,0,1-.828-1.267,3.613,3.613,0,0,1-.293-1.389,7.349,7.349,0,0,1,.146-1.389q.146-.756.293-1.536t.292-1.438a5.1,5.1,0,0,0,.147-1.048,2.444,2.444,0,0,0-.244-1.146.821.821,0,0,0-.78-.464,1.608,1.608,0,0,0-.488.1,1.925,1.925,0,0,0-.683.488,4.521,4.521,0,0,0-.878,1.243,10.36,10.36,0,0,0-.634,1.8q-.292,1.1-.609,2.681t-.8,3.827a.817.817,0,0,1-.048.244,1.231,1.231,0,0,1-.146.341.983.983,0,0,1-.634.195h-2.438q-.341,0-.39-.146a.438.438,0,0,1-.146-.39v-.244Z" transform="translate(-764.829 -474.367)" fill="#24242c"/>
    <path id="Path_3187" data-name="Path 3187" d="M1054.263-703.235a2.815,2.815,0,0,0,.221,1.2.781.781,0,0,0,.765.466,1.708,1.708,0,0,0,1.308-.638,6.431,6.431,0,0,0,.986-1.521,8.821,8.821,0,0,0,.641-1.89,8.279,8.279,0,0,0,.223-1.742,2.645,2.645,0,0,0-.223-1.178.786.786,0,0,0-.764-.442,1.717,1.717,0,0,0-1.259.589,5.5,5.5,0,0,0-.986,1.473,9.838,9.838,0,0,0-.666,1.889,7.611,7.611,0,0,0-.247,1.792m11.944-2.525a1.3,1.3,0,0,1,.731.2,1.683,1.683,0,0,1,.244.2,16.067,16.067,0,0,1-1.121,3.705,9.217,9.217,0,0,1-1.682,2.535,3.6,3.6,0,0,1-2.755,1.121,3.505,3.505,0,0,1-2.34-.78,4.28,4.28,0,0,1-1.316-1.9,6.712,6.712,0,0,1-1.605,1.9,3.463,3.463,0,0,1-2.246.78,2.93,2.93,0,0,1-1.61-.414,3,3,0,0,1-1.033-1.121,5.009,5.009,0,0,1-.528-1.658,13.134,13.134,0,0,1-.144-1.975,13.692,13.692,0,0,1,.463-3.071,11.388,11.388,0,0,1,1.171-2.852,6.973,6.973,0,0,1,1.876-2.121,4.16,4.16,0,0,1,2.536-.828,3.433,3.433,0,0,1,1.487.312,2.722,2.722,0,0,1,1.048.84l1.707-7.832a.436.436,0,0,1,.048-.195,1.6,1.6,0,0,0,.074-.169.468.468,0,0,1,.122-.171.633.633,0,0,1,.536-.2h2.34a.438.438,0,0,1,.39.146.284.284,0,0,1,.1.195v.39q-.928,3.949-1.658,7.216-.292,1.414-.585,2.8t-.512,2.559q-.219,1.17-.366,2.048a8.816,8.816,0,0,0-.146,1.219,1.4,1.4,0,0,0,.317.951,1.07,1.07,0,0,0,.853.365,1.644,1.644,0,0,0,1.292-.585,5.571,5.571,0,0,0,.853-1.317,7.678,7.678,0,0,0,.585-1.9.549.549,0,0,1,.2-.2,1.2,1.2,0,0,1,.682-.2" transform="translate(-940.652 -390.325)" fill="#24242c"/>
    <path id="Path_3188" data-name="Path 3188" d="M1233.729-624.937q-.635,0-1.292,1.083a8.715,8.715,0,0,0-1,2.477,3.2,3.2,0,0,0,1.731-.721,3.161,3.161,0,0,0,.9-1.2,2.045,2.045,0,0,0,.147-1.13q-.1-.505-.487-.505m-.634-3.072a2.7,2.7,0,0,1,1.828.61,3.49,3.49,0,0,1,1.024,1.511,4.187,4.187,0,0,1,.171,1.974,5.146,5.146,0,0,1-.731,2.024,4.922,4.922,0,0,1-1.657,1.609,5.172,5.172,0,0,1-2.584.707,3.4,3.4,0,0,0,.39,1.863,1.64,1.64,0,0,0,1.56.769,2.876,2.876,0,0,0,1.925-.682,6.9,6.9,0,0,0,1.341-1.511,10.686,10.686,0,0,0,1.121-2.194.551.551,0,0,1,.195-.2,1.2,1.2,0,0,1,.683-.195,1.293,1.293,0,0,1,.731.195,1.64,1.64,0,0,1,.243.2,14.717,14.717,0,0,1-1.462,3.706,9.882,9.882,0,0,1-2.145,2.535,4.931,4.931,0,0,1-3.315,1.121,5.055,5.055,0,0,1-1.745-.318,4.215,4.215,0,0,1-1.517-.955,4.788,4.788,0,0,1-1.058-1.639,6.143,6.143,0,0,1-.408-2.324,13.034,13.034,0,0,1,.36-2.959,12.148,12.148,0,0,1,1.034-2.837,6.988,6.988,0,0,1,1.687-2.153,3.509,3.509,0,0,1,2.331-.856" transform="translate(-1103.2 -474.364)" fill="#24242c"/>
    <path id="Path_3189" data-name="Path 3189" d="M1358.286-628.008a.528.528,0,0,1,.39.146.567.567,0,0,1,.1.39v.244q-.586,2.536-1.024,4.729-.2.927-.391,1.877t-.342,1.779q-.145.83-.219,1.487a9.834,9.834,0,0,0-.073,1,2.266,2.266,0,0,0,.772,2.023,1.735,1.735,0,0,0,1.665.17,3.708,3.708,0,0,0,1.666-1.487,5.364,5.364,0,0,0,.773-3.047,3.206,3.206,0,0,0-.147-1.244,1,1,0,0,1-.146-.463q0-.293.487-.293a2.748,2.748,0,0,1,1.1.244,3.052,3.052,0,0,1,1,.707,3.942,3.942,0,0,1,.731,1.122,3.5,3.5,0,0,1,.292,1.438,5.055,5.055,0,0,1-.536,2.291,6.423,6.423,0,0,1-1.414,1.877,7.059,7.059,0,0,1-2.023,1.292,5.993,5.993,0,0,1-2.365.488,4.941,4.941,0,0,1-2.633-.634,5.153,5.153,0,0,1-1.609-1.511,5.863,5.863,0,0,1-.829-1.877,7.417,7.417,0,0,1-.244-1.731,14.23,14.23,0,0,1,.173-1.755q.173-1.218.421-2.438.246-1.413.643-3.071v-.2a.466.466,0,0,0-.149-.341.971.971,0,0,0-.643-.146h-1.273a1.073,1.073,0,0,0-.634.146.281.281,0,0,0-.1.195.436.436,0,0,1-.049.2.814.814,0,0,0-.048.195l-.536,2.877a1.594,1.594,0,0,1-.244.2,1.333,1.333,0,0,1-.683.146,1.179,1.179,0,0,1-.683-.146,1.559,1.559,0,0,1-.243-.2l1.267-5.9a.79.79,0,0,1,.049-.244.721.721,0,0,1,.195-.341.872.872,0,0,1,.634-.2Z" transform="translate(-1214.887 -474.366)" fill="#24242c"/>
    <path id="Path_3190" data-name="Path 3190" d="M872.78-408.312v6.28h-1.911v-6.28h-2.235v-1.631h6.381v1.631Z" transform="translate(-773.246 -674.76)" fill="#24242c"/>
    <path id="Path_3191" data-name="Path 3191" d="M975.67-381.249a1.422,1.422,0,0,0-.24-.045c-.079-.007-.155-.011-.23-.011a1.308,1.308,0,0,0-.62.134,1.266,1.266,0,0,0-.4.323,1.227,1.227,0,0,0-.218.413,1.372,1.372,0,0,0-.067.39v2.853h-1.833v-5.558h1.765v.8h.023a1.811,1.811,0,0,1,.6-.7,1.551,1.551,0,0,1,.905-.27c.074,0,.147,0,.217.011a.85.85,0,0,1,.173.034Z" transform="translate(-868.292 -699.599)" fill="#24242c"/>
    <path id="Path_3192" data-name="Path 3192" d="M1051.4-379.87h-.234c-.2,0-.4.009-.609.028a2.5,2.5,0,0,0-.548.106,1.014,1.014,0,0,0-.4.229.526.526,0,0,0-.156.4.479.479,0,0,0,.073.268.565.565,0,0,0,.184.179.768.768,0,0,0,.257.095,1.475,1.475,0,0,0,.279.028,1.131,1.131,0,0,0,.855-.308,1.147,1.147,0,0,0,.3-.832Zm-3.363-2.38a3.218,3.218,0,0,1,1.145-.7,3.933,3.933,0,0,1,1.336-.234,3.574,3.574,0,0,1,1.19.173,1.776,1.776,0,0,1,.788.537,2.291,2.291,0,0,1,.441.916,5.423,5.423,0,0,1,.14,1.313v2.8H1051.4v-.592h-.033a1.381,1.381,0,0,1-.642.537,2.289,2.289,0,0,1-.933.19,2.838,2.838,0,0,1-.693-.09,2.027,2.027,0,0,1-.654-.29,1.57,1.57,0,0,1-.486-.537,1.652,1.652,0,0,1-.19-.827,1.4,1.4,0,0,1,.33-.972,2.155,2.155,0,0,1,.849-.57,4.5,4.5,0,0,1,1.157-.269,11.911,11.911,0,0,1,1.24-.067v-.089a.682.682,0,0,0-.29-.609,1.256,1.256,0,0,0-.716-.2,1.778,1.778,0,0,0-.754.168,2.4,2.4,0,0,0-.62.4Z" transform="translate(-937.867 -699.347)" fill="#24242c"/>
    <path id="Path_3193" data-name="Path 3193" d="M1152.879-375.418H1150.9l-2.19-5.565h2.023l1.173,3.609h.033l1.173-3.609h1.956Z" transform="translate(-1030.628 -701.374)" fill="#24242c"/>
    <path id="Path_3194" data-name="Path 3194" d="M1264.108-380.868a1.1,1.1,0,0,0-.274-.749,1.034,1.034,0,0,0-.822-.313,1.388,1.388,0,0,0-.491.084,1.279,1.279,0,0,0-.391.229,1.143,1.143,0,0,0-.268.341,1,1,0,0,0-.112.408Zm1.687.7v.223a1.892,1.892,0,0,1-.011.212h-4.034a.979.979,0,0,0,.14.425,1.222,1.222,0,0,0,.3.33,1.453,1.453,0,0,0,.414.218,1.461,1.461,0,0,0,.475.078,1.541,1.541,0,0,0,.737-.162,1.45,1.45,0,0,0,.491-.419l1.274.8a2.579,2.579,0,0,1-1.033.878,3.427,3.427,0,0,1-1.492.307,3.551,3.551,0,0,1-1.184-.2,2.871,2.871,0,0,1-.978-.57,2.64,2.64,0,0,1-.659-.922,3.071,3.071,0,0,1-.241-1.252,3.126,3.126,0,0,1,.235-1.235,2.793,2.793,0,0,1,.636-.939,2.841,2.841,0,0,1,.95-.6,3.252,3.252,0,0,1,1.185-.212,3.006,3.006,0,0,1,1.129.207,2.46,2.46,0,0,1,.883.6,2.766,2.766,0,0,1,.575.95,3.654,3.654,0,0,1,.207,1.274" transform="translate(-1132.894 -699.344)" fill="#24242c"/>
    <path id="Path_3195" data-name="Path 3195" d="M1373.493-408.117h1.866v-8.448h-1.866Z" transform="translate(-1237.195 -668.675)" fill="#24242c"/>
    <path id="Path_3196" data-name="Path 3196" d="M1487.248-734.26l-2.059,4.143a.253.253,0,0,1-.477-.072l-.261-1.593a.254.254,0,0,0-.192-.205l-1.571-.371a.254.254,0,0,1-.039-.481l4.276-1.768a.253.253,0,0,1,.323.347m-1.509-2.641a4.2,4.2,0,0,0-4.755,3.566,4.184,4.184,0,0,0,.533,2.712l-.915,1.717a.346.346,0,0,0,.443.478l1.811-.791a4.174,4.174,0,0,0,1.694.64,4.2,4.2,0,0,0,4.755-3.566,4.2,4.2,0,0,0-3.566-4.755" transform="translate(-1335.587 -374.257)" fill="#24242c"/>
    <path id="Path_3197" data-name="Path 3197" d="M0-992.484H155.583V-1080H0Z" transform="translate(25 -59)" fill="none"/>
  </g>
</svg>
