<svg xmlns="http://www.w3.org/2000/svg" width="104.388" height="58.719" viewBox="0 0 104.388 58.719">
  <g id="Group_1101" data-name="Group 1101" transform="translate(0 1080)">
    <path id="Path_3209" data-name="Path 3209" d="M354.68-737.473a1.765,1.765,0,0,1,.507.1,1.636,1.636,0,0,1,.589.343,2.309,2.309,0,0,1,.49.638,2.042,2.042,0,0,1,.213.981,13.86,13.86,0,0,1-.278,2.437,28.248,28.248,0,0,1-.8,3.173,33.664,33.664,0,0,1-1.259,3.386,18.8,18.8,0,0,1-1.652,3.058,9.872,9.872,0,0,1-1.979,2.208,3.537,3.537,0,0,1-2.241.85,2.886,2.886,0,0,1-1.472-.36,3.178,3.178,0,0,1-1.03-.949,4.193,4.193,0,0,1-.605-1.325,5.879,5.879,0,0,1-.2-1.521,9.455,9.455,0,0,1,.114-1.259q.115-.8.311-1.75-.556,1.112-1.112,2.192t-1.014,1.963q-.458.883-.769,1.456a5.224,5.224,0,0,1-.376.638.587.587,0,0,1-.425.131h-2.65a.273.273,0,0,1-.147-.033,1.011,1.011,0,0,0-.114-.066.355.355,0,0,1-.1-.262.357.357,0,0,1,.033-.164q.817-3.729,1.472-6.738.261-1.276.523-2.519l.474-2.257q.212-1.014.343-1.685a6.41,6.41,0,0,0,.131-.834,1.509,1.509,0,0,0-.049-.425.205.205,0,0,0-.212-.163,4.07,4.07,0,0,0-1.194.2,3.977,3.977,0,0,0-1.177.589,3.372,3.372,0,0,0-.9.981,2.645,2.645,0,0,0-.36,1.407,1.568,1.568,0,0,0,.164.834.911.911,0,0,1,.163.311c0,.109-.082.2-.245.262a1.637,1.637,0,0,1-.6.1,1.623,1.623,0,0,1-.491-.1,1.839,1.839,0,0,1-.589-.343,2.148,2.148,0,0,1-.507-.638,2.039,2.039,0,0,1-.213-.981,2.836,2.836,0,0,1,.376-1.374,3.8,3.8,0,0,1,1.194-1.259,6.648,6.648,0,0,1,2.11-.916,12.308,12.308,0,0,1,3.124-.343,2.669,2.669,0,0,1,1.014.163,1.453,1.453,0,0,1,.589.409,1.34,1.34,0,0,1,.262.507,1.94,1.94,0,0,1,.065.458,7,7,0,0,1-.147.9q-.147.736-.376,1.848t-.523,2.453q-.295,1.341-.589,2.715t-.572,2.617q-.278,1.243-.474,2.159.36-.752.916-1.881t1.161-2.388q.6-1.259,1.243-2.535t1.177-2.322q.54-1.047.9-1.734a5.133,5.133,0,0,1,.458-.785.536.536,0,0,1,.393-.131h1.079a.4.4,0,0,1,.376.2,1.819,1.819,0,0,1,.147.295q-.589,2.159-1.014,4.089-.2.818-.36,1.668t-.311,1.619q-.147.769-.229,1.407a8.459,8.459,0,0,0-.082,1.03,2.783,2.783,0,0,0,.344,1.587.982.982,0,0,0,.8.474,2.261,2.261,0,0,0,1.635-.769,8.422,8.422,0,0,0,1.39-1.979,17.163,17.163,0,0,0,1.129-2.731q.49-1.521.818-2.993t.507-2.764a15.892,15.892,0,0,0,.18-2.077,1.483,1.483,0,0,0-.163-.818.721.721,0,0,1-.164-.327q0-.164.245-.245a1.946,1.946,0,0,1,.605-.082" transform="translate(-317.208 -323.874)" fill="#ff6448"/>
    <path id="Path_3210" data-name="Path 3210" d="M721.615-621.485a2.759,2.759,0,0,0,.2,1.063.674.674,0,0,0,.654.474,1.122,1.122,0,0,0,.851-.458,4.594,4.594,0,0,0,.687-1.112,2.985,2.985,0,0,1,.049-1.488,2.2,2.2,0,0,1,.54-1.03,2.348,2.348,0,0,0-.163-.932.616.616,0,0,0-.622-.376,1.24,1.24,0,0,0-.867.392,3.609,3.609,0,0,0-.7.965,5.609,5.609,0,0,0-.458,1.243,5.312,5.312,0,0,0-.163,1.259m4.318,1.407a2.282,2.282,0,0,1-.883-.131,5.494,5.494,0,0,1-1.259,1.57,2.537,2.537,0,0,1-1.685.621,2.594,2.594,0,0,1-2-.9,3.435,3.435,0,0,1-.818-2.4,8.034,8.034,0,0,1,.327-2.306,6.837,6.837,0,0,1,.9-1.93,4.9,4.9,0,0,1,1.341-1.341,2.946,2.946,0,0,1,1.652-.507,2.329,2.329,0,0,1,1.864.85,3.485,3.485,0,0,1,.72,2.323,7.718,7.718,0,0,1-.294,2.028.826.826,0,0,0,.654.392,1.3,1.3,0,0,0,1.031-.392,1.622,1.622,0,0,0,.409-.752.372.372,0,0,1,.13-.131.81.81,0,0,1,.458-.131.869.869,0,0,1,.491.131,1.163,1.163,0,0,1,.164.131,3.439,3.439,0,0,1-.311.9,4.131,4.131,0,0,1-.638.949,3.286,3.286,0,0,1-.965.736,2.784,2.784,0,0,1-1.292.295" transform="translate(-680.186 -427.987)" fill="#ff6448"/>
    <path id="Path_3211" data-name="Path 3211" d="M861.306-627.483a.539.539,0,0,1,.033-.163.484.484,0,0,1,.131-.229.47.47,0,0,1,.392-.131H863.4a.353.353,0,0,1,.262.1.379.379,0,0,1,.066.262v.163l-.066.2a1.967,1.967,0,0,1,.556-.327,3.808,3.808,0,0,1,.687-.245,3.948,3.948,0,0,1,1.014-.114,2.294,2.294,0,0,1,1.619.589,1.816,1.816,0,0,1,.638,1.374,3.833,3.833,0,0,1-.114.736q-.116.508-.262,1.129t-.262,1.243a5.923,5.923,0,0,0-.114,1.047.937.937,0,0,0,.213.638.718.718,0,0,0,.572.245,1.1,1.1,0,0,0,.867-.392,3.742,3.742,0,0,0,.572-.883,5.156,5.156,0,0,0,.392-1.276.377.377,0,0,1,.131-.131.755.755,0,0,1,.425-.131,1.168,1.168,0,0,1,.523.131,1.175,1.175,0,0,1,.164.131,10.778,10.778,0,0,1-.753,2.486,6.168,6.168,0,0,1-1.129,1.7,2.412,2.412,0,0,1-1.848.752,2.517,2.517,0,0,1-1.08-.229,2.8,2.8,0,0,1-.85-.605,2.717,2.717,0,0,1-.556-.85,2.426,2.426,0,0,1-.2-.932,4.93,4.93,0,0,1,.1-.932q.1-.507.2-1.031t.2-.965a3.427,3.427,0,0,0,.1-.7,1.639,1.639,0,0,0-.164-.769.551.551,0,0,0-.523-.311,1.079,1.079,0,0,0-.327.065,1.292,1.292,0,0,0-.458.327,3.029,3.029,0,0,0-.589.834,6.935,6.935,0,0,0-.425,1.21q-.2.736-.409,1.8t-.54,2.568a.545.545,0,0,1-.033.164.822.822,0,0,1-.1.229.66.66,0,0,1-.425.131h-1.636c-.152,0-.24-.033-.262-.1a.294.294,0,0,1-.1-.262v-.164Z" transform="translate(-812.746 -427.42)" fill="#ff6448"/>
    <path id="Path_3212" data-name="Path 3212" d="M1053.123-708.574a1.889,1.889,0,0,0,.149.807.524.524,0,0,0,.513.313,1.146,1.146,0,0,0,.877-.428,4.313,4.313,0,0,0,.662-1.021,5.916,5.916,0,0,0,.43-1.268,5.553,5.553,0,0,0,.149-1.169,1.775,1.775,0,0,0-.149-.79.528.528,0,0,0-.513-.3,1.152,1.152,0,0,0-.844.4,3.693,3.693,0,0,0-.662.988,6.607,6.607,0,0,0-.446,1.267,5.114,5.114,0,0,0-.166,1.2m8.014-1.694a.869.869,0,0,1,.491.131,1.134,1.134,0,0,1,.164.131,10.781,10.781,0,0,1-.752,2.486,6.178,6.178,0,0,1-1.129,1.7,2.413,2.413,0,0,1-1.849.752,2.352,2.352,0,0,1-1.57-.523,2.873,2.873,0,0,1-.883-1.276,4.5,4.5,0,0,1-1.077,1.276,2.324,2.324,0,0,1-1.507.523,1.965,1.965,0,0,1-1.08-.278,2.013,2.013,0,0,1-.693-.752,3.363,3.363,0,0,1-.354-1.112,8.836,8.836,0,0,1-.1-1.325,9.181,9.181,0,0,1,.311-2.061,7.645,7.645,0,0,1,.785-1.914,4.679,4.679,0,0,1,1.259-1.423,2.791,2.791,0,0,1,1.7-.556,2.3,2.3,0,0,1,1,.209,1.825,1.825,0,0,1,.7.563l1.145-5.255a.29.29,0,0,1,.033-.13,1.076,1.076,0,0,0,.049-.114.319.319,0,0,1,.082-.115.425.425,0,0,1,.36-.131h1.57a.294.294,0,0,1,.262.1.19.19,0,0,1,.066.131v.262q-.622,2.65-1.112,4.841-.2.949-.392,1.881t-.344,1.717q-.147.785-.245,1.374a5.882,5.882,0,0,0-.1.818.937.937,0,0,0,.213.638.718.718,0,0,0,.572.245,1.1,1.1,0,0,0,.867-.392,3.741,3.741,0,0,0,.572-.883,5.154,5.154,0,0,0,.392-1.276.372.372,0,0,1,.131-.131.808.808,0,0,1,.458-.131" transform="translate(-993.67 -340.938)" fill="#ff6448"/>
    <path id="Path_3213" data-name="Path 3213" d="M1231.739-625.948q-.426,0-.867.726a5.847,5.847,0,0,0-.67,1.662,2.147,2.147,0,0,0,1.161-.484,2.121,2.121,0,0,0,.6-.807,1.375,1.375,0,0,0,.1-.758q-.066-.339-.327-.339m-.425-2.061a1.813,1.813,0,0,1,1.226.409,2.343,2.343,0,0,1,.687,1.014,2.808,2.808,0,0,1,.114,1.325,3.452,3.452,0,0,1-.491,1.358,3.3,3.3,0,0,1-1.112,1.079,3.471,3.471,0,0,1-1.734.474,2.278,2.278,0,0,0,.262,1.25,1.1,1.1,0,0,0,1.047.516,1.93,1.93,0,0,0,1.292-.458,4.627,4.627,0,0,0,.9-1.014,7.169,7.169,0,0,0,.752-1.472.37.37,0,0,1,.131-.131.808.808,0,0,1,.458-.131.868.868,0,0,1,.491.131,1.12,1.12,0,0,1,.163.131,9.881,9.881,0,0,1-.981,2.486,6.632,6.632,0,0,1-1.439,1.7,3.309,3.309,0,0,1-2.224.753,3.39,3.39,0,0,1-1.171-.213,2.825,2.825,0,0,1-1.018-.641,3.209,3.209,0,0,1-.71-1.1,4.122,4.122,0,0,1-.274-1.56,8.739,8.739,0,0,1,.242-1.986,8.142,8.142,0,0,1,.694-1.9,4.689,4.689,0,0,1,1.132-1.445,2.354,2.354,0,0,1,1.564-.575" transform="translate(-1160.935 -427.417)" fill="#ff6448"/>
    <path id="Path_3214" data-name="Path 3214" d="M1355.3-628.008a.353.353,0,0,1,.261.1.377.377,0,0,1,.066.262v.163q-.393,1.7-.687,3.173-.131.622-.262,1.26t-.229,1.194q-.1.557-.147,1a6.632,6.632,0,0,0-.049.671,1.521,1.521,0,0,0,.518,1.358,1.165,1.165,0,0,0,1.117.114,2.488,2.488,0,0,0,1.117-1,3.6,3.6,0,0,0,.519-2.044,2.153,2.153,0,0,0-.1-.834.674.674,0,0,1-.1-.311q0-.2.327-.2a1.842,1.842,0,0,1,.736.164,2.047,2.047,0,0,1,.671.474,2.645,2.645,0,0,1,.491.753,2.345,2.345,0,0,1,.2.965,3.392,3.392,0,0,1-.36,1.537,4.308,4.308,0,0,1-.949,1.259,4.736,4.736,0,0,1-1.357.867,4.022,4.022,0,0,1-1.587.327,3.315,3.315,0,0,1-1.766-.425,3.459,3.459,0,0,1-1.079-1.014,3.933,3.933,0,0,1-.556-1.26,4.975,4.975,0,0,1-.164-1.161,9.518,9.518,0,0,1,.116-1.178q.116-.817.282-1.636.165-.948.432-2.061v-.131a.313.313,0,0,0-.1-.229.652.652,0,0,0-.431-.1h-.854a.72.72,0,0,0-.425.1.188.188,0,0,0-.065.131.294.294,0,0,1-.033.131.544.544,0,0,0-.033.131l-.36,1.93a1.071,1.071,0,0,1-.163.131.894.894,0,0,1-.458.1.79.79,0,0,1-.458-.1,1.017,1.017,0,0,1-.163-.131l.85-3.958a.533.533,0,0,1,.033-.163.486.486,0,0,1,.131-.229.586.586,0,0,1,.425-.131Z" transform="translate(-1275.862 -427.418)" fill="#ff6448"/>
    <path id="Path_3215" data-name="Path 3215" d="M871.416-408.849v4.214h-1.282v-4.214h-1.5v-1.095h4.281v1.095Z" transform="translate(-821.407 -633.626)" fill="#ff6448"/>
    <path id="Path_3216" data-name="Path 3216" d="M974.482-381.8a.949.949,0,0,0-.161-.03c-.053,0-.1-.008-.154-.008a.877.877,0,0,0-.416.09.85.85,0,0,0-.27.217.821.821,0,0,0-.146.277.918.918,0,0,0-.045.262v1.914h-1.23V-382.8h1.185v.54h.015a1.216,1.216,0,0,1,.4-.468,1.041,1.041,0,0,1,.607-.181c.05,0,.1,0,.146.007a.571.571,0,0,1,.116.023Z" transform="translate(-919.211 -659.186)" fill="#ff6448"/>
    <path id="Path_3217" data-name="Path 3217" d="M1050.208-380.962h-.157c-.135,0-.271.006-.409.019a1.685,1.685,0,0,0-.368.071.679.679,0,0,0-.266.154.352.352,0,0,0-.1.266.322.322,0,0,0,.049.18.38.38,0,0,0,.124.12.514.514,0,0,0,.173.064.985.985,0,0,0,.187.019.759.759,0,0,0,.574-.206.77.77,0,0,0,.2-.558Zm-2.257-1.6a2.157,2.157,0,0,1,.768-.472,2.636,2.636,0,0,1,.9-.157,2.4,2.4,0,0,1,.8.116,1.192,1.192,0,0,1,.529.36,1.538,1.538,0,0,1,.3.615,3.636,3.636,0,0,1,.094.881v1.882h-1.125v-.4h-.022a.927.927,0,0,1-.431.36,1.536,1.536,0,0,1-.626.128,1.9,1.9,0,0,1-.465-.06,1.359,1.359,0,0,1-.438-.195,1.055,1.055,0,0,1-.326-.36,1.11,1.11,0,0,1-.127-.555.942.942,0,0,1,.221-.652,1.447,1.447,0,0,1,.57-.382,3.017,3.017,0,0,1,.776-.18,7.984,7.984,0,0,1,.832-.045v-.06a.458.458,0,0,0-.195-.409.842.842,0,0,0-.48-.131,1.192,1.192,0,0,0-.506.112,1.613,1.613,0,0,0-.416.27Z" transform="translate(-990.805 -658.927)" fill="#ff6448"/>
    <path id="Path_3218" data-name="Path 3218" d="M1151.508-377.249h-1.327l-1.469-3.734h1.357l.787,2.422h.022l.787-2.422h1.312Z" transform="translate(-1086.257 -661.013)" fill="#ff6448"/>
    <path id="Path_3219" data-name="Path 3219" d="M1262.755-381.632a.737.737,0,0,0-.184-.5.694.694,0,0,0-.551-.21.933.933,0,0,0-.33.056.857.857,0,0,0-.263.154.765.765,0,0,0-.18.229.673.673,0,0,0-.075.274Zm1.132.472v.15a1.287,1.287,0,0,1-.007.143h-2.707a.655.655,0,0,0,.094.285.815.815,0,0,0,.2.221.973.973,0,0,0,.277.146.981.981,0,0,0,.318.052,1.035,1.035,0,0,0,.495-.109.972.972,0,0,0,.33-.281l.855.54a1.73,1.73,0,0,1-.693.589,2.3,2.3,0,0,1-1,.206,2.383,2.383,0,0,1-.795-.131,1.924,1.924,0,0,1-.656-.382,1.771,1.771,0,0,1-.442-.618,2.066,2.066,0,0,1-.161-.84,2.1,2.1,0,0,1,.158-.828,1.878,1.878,0,0,1,.427-.63,1.91,1.91,0,0,1,.637-.4,2.182,2.182,0,0,1,.795-.143,2.014,2.014,0,0,1,.757.139,1.648,1.648,0,0,1,.592.4,1.857,1.857,0,0,1,.386.637,2.455,2.455,0,0,1,.139.855" transform="translate(-1191.49 -658.923)" fill="#ff6448"/>
    <path id="Path_3220" data-name="Path 3220" d="M1373.493-410.9h1.252v-5.668h-1.252Z" transform="translate(-1298.818 -627.365)" fill="#ff6448"/>
    <path id="Path_3221" data-name="Path 3221" d="M1485.048-735.143l-1.382,2.78a.17.17,0,0,1-.32-.048l-.175-1.069a.17.17,0,0,0-.129-.138l-1.054-.249a.17.17,0,0,1-.026-.322l2.869-1.186a.17.17,0,0,1,.217.233m-1.013-1.772a2.82,2.82,0,0,0-3.19,2.393,2.807,2.807,0,0,0,.358,1.82l-.614,1.152a.232.232,0,0,0,.3.321l1.215-.531a2.8,2.8,0,0,0,1.136.429,2.82,2.82,0,0,0,3.191-2.393,2.82,2.82,0,0,0-2.393-3.191" transform="translate(-1400.064 -324.405)" fill="#ff6448"/>
    <path id="Path_3222" data-name="Path 3222" d="M0-1021.282H104.388V-1080H0Z" fill="none"/>
  </g>
</svg>
