<svg xmlns="http://www.w3.org/2000/svg" width="7.142" height="10.502" viewBox="0 0 7.142 10.502">
  <g id="Group_431" data-name="Group 431" transform="translate(-113.467 -842.898)">
    <g id="noun_Maps_3676649" transform="translate(101.767 840.698)">
      <path id="Path_2194" data-name="Path 2194" d="M15.271,2.2A3.574,3.574,0,0,0,11.7,5.771c0,1.812,2.867,6.227,3.2,6.737a.449.449,0,0,0,.739,0c.334-.493,3.2-4.926,3.2-6.737A3.574,3.574,0,0,0,15.271,2.2Zm0,9.235c-.985-1.583-2.691-4.521-2.691-5.664a2.691,2.691,0,0,1,5.383-.018C17.962,6.914,16.256,9.852,15.271,11.435Zm0-7.406a1.724,1.724,0,1,0,1.724,1.724A1.727,1.727,0,0,0,15.271,4.029Zm0,2.586a.845.845,0,0,1-.844-.844.844.844,0,1,1,1.689,0A.845.845,0,0,1,15.271,6.615Z" fill="#ff6549"/>
    </g>
  </g>
</svg>
