<svg xmlns="http://www.w3.org/2000/svg" width="12.267" height="8.515" viewBox="0 0 12.267 8.515">
  <g id="noun_Food_2688587" transform="translate(-3.5 -17.721)">
    <g id="Group_283" data-name="Group 283" transform="translate(3.5 17.721)">
      <path id="Path_2150" data-name="Path 2150" d="M24.07,22.414a3.948,3.948,0,1,0,3.948,3.948A3.953,3.953,0,0,0,24.07,22.414Zm0,7.5a3.552,3.552,0,1,1,3.553-3.552A3.556,3.556,0,0,1,24.07,29.915Z" transform="translate(-17.93 -21.795)" fill="#fdfcf7"/>
      <path id="Path_2151" data-name="Path 2151" d="M30.9,30.278a2.911,2.911,0,1,0,2.911,2.911A2.914,2.914,0,0,0,30.9,30.278Zm0,5.426a2.515,2.515,0,1,1,2.515-2.515A2.518,2.518,0,0,1,30.9,35.7Z" transform="translate(-24.757 -28.622)" fill="#fdfcf7"/>
      <path id="Path_2152" data-name="Path 2152" d="M80.61,17.721A1.339,1.339,0,0,0,79.488,19.2,1.63,1.63,0,0,0,80,20.438a.519.519,0,0,1,.169.4l-.082,4.611a.54.54,0,0,0,.5.553h.026a.526.526,0,0,0,.527-.535l-.082-4.63a.519.519,0,0,1,.169-.4,1.63,1.63,0,0,0,.509-1.239A1.339,1.339,0,0,0,80.61,17.721Zm.356,2.416a.905.905,0,0,0-.308.712l.082,4.629a.129.129,0,0,1-.04.1.134.134,0,0,1-.1.037.144.144,0,0,1-.123-.151l.082-4.611a.906.906,0,0,0-.308-.712,1.25,1.25,0,0,1-.371-.938c0-.587.333-1.082.726-1.082s.726.5.726,1.082A1.25,1.25,0,0,1,80.966,20.137Z" transform="translate(-69.465 -17.721)" fill="#fdfcf7"/>
      <path id="Path_2153" data-name="Path 2153" d="M5.772,19.226a.2.2,0,0,0-.4,0v1.618a.189.189,0,0,1-.125.178.854.854,0,0,0-.57.821l.085,4.771a.129.129,0,0,1-.037.094.133.133,0,0,1-.186,0,.129.129,0,0,1-.037-.094l.085-4.771a.854.854,0,0,0-.57-.821.189.189,0,0,1-.126-.178V19.226a.2.2,0,1,0-.4,0v1.618a.585.585,0,0,0,.389.551.458.458,0,0,1,.306.441L4.11,26.606a.526.526,0,1,0,1.052,0l-.085-4.771a.458.458,0,0,1,.306-.441.585.585,0,0,0,.389-.551V19.226Z" transform="translate(-3.5 -18.856)" fill="#fdfcf7"/>
      <path id="Path_2154" data-name="Path 2154" d="M8.518,20.624v-1.4a.2.2,0,0,0-.4,0v1.4a.2.2,0,0,0,.4,0Z" transform="translate(-7.512 -18.856)" fill="#fdfcf7"/>
      <path id="Path_2155" data-name="Path 2155" d="M13,20.624v-1.4a.2.2,0,0,0-.4,0v1.4a.2.2,0,1,0,.4,0Z" transform="translate(-11.405 -18.856)" fill="#fdfcf7"/>
    </g>
  </g>
</svg>
