<svg id="noun_adventure_68979" xmlns="http://www.w3.org/2000/svg" width="49.059" height="40.599" viewBox="0 0 49.059 40.599">
  <g id="Group_56" data-name="Group 56" transform="translate(0 0)">
    <g id="Group_55" data-name="Group 55">
      <ellipse id="Ellipse_4" data-name="Ellipse 4" cx="1.858" cy="1.858" rx="1.858" ry="1.858" transform="translate(19.782)" fill="#ff6549"/>
      <path id="Path_207" data-name="Path 207" d="M51.167,24.8h-.034l-2.169-.09a.8.8,0,0,1-.651-.38l-1.636-2.638a.805.805,0,1,1,1.369-.849l1.412,2.276,1.743.073a.805.805,0,0,1-.034,1.61Z" transform="translate(-23.863 -16.181)" fill="#ff6549"/>
      <path id="Path_208" data-name="Path 208" d="M36.976,26.248a.8.8,0,0,1-.609-.278L34.8,24.161a.806.806,0,0,1,.05-1.107l2.46-2.371a.805.805,0,1,1,1.118,1.16l-1.91,1.841,1.067,1.232a.805.805,0,0,1-.608,1.332Z" transform="translate(-18.087 -16.181)" fill="#ff6549"/>
      <path id="Path_209" data-name="Path 209" d="M40.922,20.458h3.641l.23,6.377-3.735-.112Z" transform="translate(-21.14 -16.181)" fill="#ff6549"/>
      <path id="Path_210" data-name="Path 210" d="M47.749,35.467H47.7a1.073,1.073,0,0,1-1.027-1.118l.1-2.315-1.713-.892a1.074,1.074,0,0,1,.992-1.9l2.317,1.208a1.073,1.073,0,0,1,.577,1l-.126,3A1.073,1.073,0,0,1,47.749,35.467Z" transform="translate(-22.861 -20.365)" fill="#ff6549"/>
      <path id="Path_211" data-name="Path 211" d="M41.727,40.459a1.093,1.093,0,0,1-.182-.015,1.074,1.074,0,0,1-.878-1.239l.687-4.03-.478-4.821a1.074,1.074,0,1,1,2.137-.211l.492,4.965a1.062,1.062,0,0,1-.01.286l-.711,4.173A1.073,1.073,0,0,1,41.727,40.459Z" transform="translate(-21.01 -20.393)" fill="#ff6549"/>
      <path id="Path_212" data-name="Path 212" d="M55.322,34.672a.537.537,0,0,1-.537-.537V30.122a.537.537,0,1,1,1.074,0v4.013A.537.537,0,0,1,55.322,34.672Z" transform="translate(-27.84 -20.592)" fill="#ff6549"/>
      <path id="Path_213" data-name="Path 213" d="M55.408,19.583a.537.537,0,0,1-.537-.537V15.033a.537.537,0,0,1,1.074,0v4.013A.537.537,0,0,1,55.408,19.583Z" transform="translate(-27.881 -13.3)" fill="#ff6549"/>
      <path id="Path_214" data-name="Path 214" d="M63.463,14.953s-.111.128-.807.3-1.81-.939-2.785-.973a3.065,3.065,0,0,0-1.754.553V19.1a3.065,3.065,0,0,1,1.754-.553c.975.034,2.088,1.141,2.785.973s.807-.3.807-.3Z" transform="translate(-29.45 -13.193)" fill="#ff6549"/>
      <path id="Path_215" data-name="Path 215" d="M2.64,65.2,9.648,52.842l6.241-1.677,2.722-4.015,3.044.661,5.178-9.942,7.52,3.2,4.715,12.949,2.647-1.882,3.168,6.707,5.281,3.088L51.7,65.2ZM24.959,46.551l2.9-.872,2.082,1.543,1.52-1.745,3.825,5.661L33,42.324,27.858,40.78l-2.235,4.563Zm17.755,11.2L41.472,54.46l-1.241.872ZM21.78,49.494l-2.415-.5-1.174,2.147ZM9.568,57.747l6.374-4.395L10.8,54.471,9.367,57.747" transform="translate(-2.64 -24.596)" fill="#ff6549"/>
    </g>
  </g>
</svg>
