<svg xmlns="http://www.w3.org/2000/svg" xmlns:xlink="http://www.w3.org/1999/xlink" width="258.765" height="100.09" viewBox="0 0 258.765 100.09">
  <defs>
    <filter id="Path_2" x="0" y="0" width="92.302" height="78.782" filterUnits="userSpaceOnUse">
      <feOffset dy="3" input="SourceAlpha"/>
      <feGaussianBlur stdDeviation="3" result="blur"/>
      <feFlood flood-opacity="0.161"/>
      <feComposite operator="in" in2="blur"/>
      <feComposite in="SourceGraphic"/>
    </filter>
    <filter id="Path_3" x="73.724" y="21.146" width="52.783" height="51.165" filterUnits="userSpaceOnUse">
      <feOffset dy="3" input="SourceAlpha"/>
      <feGaussianBlur stdDeviation="3" result="blur-2"/>
      <feFlood flood-opacity="0.161"/>
      <feComposite operator="in" in2="blur-2"/>
      <feComposite in="SourceGraphic"/>
    </filter>
    <filter id="Path_4" x="100.648" y="21.031" width="59.717" height="51.28" filterUnits="userSpaceOnUse">
      <feOffset dy="3" input="SourceAlpha"/>
      <feGaussianBlur stdDeviation="3" result="blur-3"/>
      <feFlood flood-opacity="0.161"/>
      <feComposite operator="in" in2="blur-3"/>
      <feComposite in="SourceGraphic"/>
    </filter>
    <filter id="Path_5" x="137.395" y="3.466" width="56.826" height="68.845" filterUnits="userSpaceOnUse">
      <feOffset dy="3" input="SourceAlpha"/>
      <feGaussianBlur stdDeviation="3" result="blur-4"/>
      <feFlood flood-opacity="0.161"/>
      <feComposite operator="in" in2="blur-4"/>
      <feComposite in="SourceGraphic"/>
    </filter>
    <filter id="Path_6" x="171.368" y="21.031" width="45.617" height="51.281" filterUnits="userSpaceOnUse">
      <feOffset dy="3" input="SourceAlpha"/>
      <feGaussianBlur stdDeviation="3" result="blur-5"/>
      <feFlood flood-opacity="0.161"/>
      <feComposite operator="in" in2="blur-5"/>
      <feComposite in="SourceGraphic"/>
    </filter>
    <filter id="Path_7" x="194.711" y="21.031" width="55.208" height="57.752" filterUnits="userSpaceOnUse">
      <feOffset dy="3" input="SourceAlpha"/>
      <feGaussianBlur stdDeviation="3" result="blur-6"/>
      <feFlood flood-opacity="0.161"/>
      <feComposite operator="in" in2="blur-6"/>
      <feComposite in="SourceGraphic"/>
    </filter>
    <filter id="Path_8" x="102.407" y="62.913" width="33.124" height="36.752" filterUnits="userSpaceOnUse">
      <feOffset dy="3" input="SourceAlpha"/>
      <feGaussianBlur stdDeviation="3" result="blur-7"/>
      <feFlood flood-opacity="0.161"/>
      <feComposite operator="in" in2="blur-7"/>
      <feComposite in="SourceGraphic"/>
    </filter>
    <filter id="Path_9" x="122.272" y="68.105" width="26.74" height="31.56" filterUnits="userSpaceOnUse">
      <feOffset dy="3" input="SourceAlpha"/>
      <feGaussianBlur stdDeviation="3" result="blur-8"/>
      <feFlood flood-opacity="0.161"/>
      <feComposite operator="in" in2="blur-8"/>
      <feComposite in="SourceGraphic"/>
    </filter>
    <filter id="Path_10" x="136.813" y="68.052" width="30.581" height="31.932" filterUnits="userSpaceOnUse">
      <feOffset dy="3" input="SourceAlpha"/>
      <feGaussianBlur stdDeviation="3" result="blur-9"/>
      <feFlood flood-opacity="0.161"/>
      <feComposite operator="in" in2="blur-9"/>
      <feComposite in="SourceGraphic"/>
    </filter>
    <filter id="Path_11" x="156.201" y="68.476" width="33.071" height="31.19" filterUnits="userSpaceOnUse">
      <feOffset dy="3" input="SourceAlpha"/>
      <feGaussianBlur stdDeviation="3" result="blur-10"/>
      <feFlood flood-opacity="0.161"/>
      <feComposite operator="in" in2="blur-10"/>
      <feComposite in="SourceGraphic"/>
    </filter>
    <filter id="Path_12" x="177.574" y="68.052" width="31.747" height="32.038" filterUnits="userSpaceOnUse">
      <feOffset dy="3" input="SourceAlpha"/>
      <feGaussianBlur stdDeviation="3" result="blur-11"/>
      <feFlood flood-opacity="0.161"/>
      <feComposite operator="in" in2="blur-11"/>
      <feComposite in="SourceGraphic"/>
    </filter>
    <filter id="Rectangle_1" x="199.373" y="61.642" width="22.422" height="38.023" filterUnits="userSpaceOnUse">
      <feOffset dy="3" input="SourceAlpha"/>
      <feGaussianBlur stdDeviation="3" result="blur-12"/>
      <feFlood flood-opacity="0.161"/>
      <feComposite operator="in" in2="blur-12"/>
      <feComposite in="SourceGraphic"/>
    </filter>
    <filter id="Path_13" x="219.937" y="0.108" width="38.828" height="38.256" filterUnits="userSpaceOnUse">
      <feOffset dy="3" input="SourceAlpha"/>
      <feGaussianBlur stdDeviation="3" result="blur-13"/>
      <feFlood flood-opacity="0.161"/>
      <feComposite operator="in" in2="blur-13"/>
      <feComposite in="SourceGraphic"/>
    </filter>
  </defs>
  <g id="Group_1185" data-name="Group 1185" transform="translate(1547 -1710)">
    <g transform="matrix(1, 0, 0, 1, -1547, 1710)" filter="url(#Path_2)">
      <path id="Path_2-2" data-name="Path 2" d="M161.947,325.869a6.237,6.237,0,0,1,1.79.347,5.782,5.782,0,0,1,2.081,1.213,8.159,8.159,0,0,1,1.732,2.253,7.216,7.216,0,0,1,.751,3.466,48.965,48.965,0,0,1-.981,8.609,99.822,99.822,0,0,1-2.832,11.209,118.9,118.9,0,0,1-4.449,11.96,66.438,66.438,0,0,1-5.834,10.8,34.868,34.868,0,0,1-6.992,7.8,12.494,12.494,0,0,1-7.915,3,10.2,10.2,0,0,1-5.2-1.271,11.226,11.226,0,0,1-3.64-3.351,14.812,14.812,0,0,1-2.138-4.68,20.765,20.765,0,0,1-.693-5.374,33.441,33.441,0,0,1,.4-4.449q.405-2.829,1.1-6.182-1.966,3.93-3.928,7.743t-3.583,6.933q-1.618,3.12-2.716,5.142a18.5,18.5,0,0,1-1.328,2.254,2.072,2.072,0,0,1-1.5.462h-9.36a.967.967,0,0,1-.52-.115,3.533,3.533,0,0,0-.4-.231,1.437,1.437,0,0,1-.231-1.5q2.887-13.174,5.2-23.8.924-4.508,1.848-8.9t1.676-7.973q.75-3.581,1.212-5.951a22.637,22.637,0,0,0,.463-2.947,5.336,5.336,0,0,0-.173-1.5.725.725,0,0,0-.751-.577,14.381,14.381,0,0,0-4.218.693,14.052,14.052,0,0,0-4.159,2.08,11.915,11.915,0,0,0-3.179,3.466,9.341,9.341,0,0,0-1.271,4.969,5.541,5.541,0,0,0,.578,2.947,3.22,3.22,0,0,1,.577,1.1c0,.386-.289.693-.867.924a5.519,5.519,0,0,1-3.871,0,6.5,6.5,0,0,1-2.079-1.213,7.583,7.583,0,0,1-1.791-2.254A7.2,7.2,0,0,1,94,339.5a10.017,10.017,0,0,1,1.329-4.853,13.427,13.427,0,0,1,4.217-4.449A23.482,23.482,0,0,1,107,326.967a43.473,43.473,0,0,1,11.036-1.213,9.431,9.431,0,0,1,3.582.577,5.133,5.133,0,0,1,2.081,1.445,4.733,4.733,0,0,1,.924,1.791,6.858,6.858,0,0,1,.23,1.618,24.709,24.709,0,0,1-.52,3.178q-.519,2.6-1.328,6.529t-1.848,8.667q-1.042,4.739-2.081,9.59t-2.022,9.245q-.983,4.393-1.676,7.627,1.271-2.656,3.236-6.644t4.1-8.436q2.137-4.447,4.392-8.956t4.159-8.2q1.906-3.7,3.178-6.125a18.19,18.19,0,0,1,1.617-2.774,1.892,1.892,0,0,1,1.389-.462h3.812a1.42,1.42,0,0,1,1.329.694,6.406,6.406,0,0,1,.52,1.04q-2.08,7.627-3.583,14.444-.693,2.889-1.271,5.894t-1.1,5.72q-.52,2.716-.809,4.969a29.873,29.873,0,0,0-.29,3.64q0,3.93,1.214,5.6a3.47,3.47,0,0,0,2.832,1.675,7.987,7.987,0,0,0,5.777-2.716,29.736,29.736,0,0,0,4.912-6.991,60.592,60.592,0,0,0,3.987-9.648q1.732-5.374,2.888-10.574t1.792-9.765a56.138,56.138,0,0,0,.635-7.338,5.24,5.24,0,0,0-.577-2.888,2.546,2.546,0,0,1-.578-1.156q0-.578.867-.867a6.872,6.872,0,0,1,2.138-.289" transform="translate(-85 -319.75)" fill="#fff"/>
    </g>
    <g transform="matrix(1, 0, 0, 1, -1547, 1710)" filter="url(#Path_3)">
      <path id="Path_3-2" data-name="Path 3" d="M457.96,449.306a8.052,8.052,0,0,1-3.121-.462,19.406,19.406,0,0,1-4.448,5.547,8.962,8.962,0,0,1-5.951,2.2,9.165,9.165,0,0,1-7.049-3.178,12.136,12.136,0,0,1-2.888-8.494,28.382,28.382,0,0,1,1.155-8.147,24.159,24.159,0,0,1,3.178-6.818,17.326,17.326,0,0,1,4.738-4.738,10.407,10.407,0,0,1,5.835-1.791,8.227,8.227,0,0,1,6.586,3q2.541,3.006,2.542,8.2a27.272,27.272,0,0,1-1.039,7.165,2.916,2.916,0,0,0,2.311,1.386,4.583,4.583,0,0,0,3.641-1.386,5.723,5.723,0,0,0,1.445-2.658,1.317,1.317,0,0,1,.461-.463,2.864,2.864,0,0,1,1.619-.462,3.073,3.073,0,0,1,1.733.462,4.105,4.105,0,0,1,.579.463,12.149,12.149,0,0,1-1.1,3.178,14.592,14.592,0,0,1-2.253,3.351,11.611,11.611,0,0,1-3.409,2.6,9.832,9.832,0,0,1-4.564,1.041m-15.253-4.969a9.746,9.746,0,0,0,.693,3.756,2.379,2.379,0,0,0,2.312,1.675,3.964,3.964,0,0,0,3.005-1.618,16.233,16.233,0,0,0,2.426-3.929,10.549,10.549,0,0,1,.174-5.258,7.76,7.76,0,0,1,1.907-3.64,8.293,8.293,0,0,0-.577-3.294,2.177,2.177,0,0,0-2.2-1.328,4.382,4.382,0,0,0-3.061,1.386A12.734,12.734,0,0,0,444.9,435.5a19.808,19.808,0,0,0-1.619,4.392,18.767,18.767,0,0,0-.577,4.449" transform="translate(-351.78 -396.27)" fill="#fff"/>
    </g>
    <g transform="matrix(1, 0, 0, 1, -1547, 1710)" filter="url(#Path_4)">
      <path id="Path_4-2" data-name="Path 4" d="M565.325,424.738a1.9,1.9,0,0,1,.115-.577,1.711,1.711,0,0,1,.463-.809,1.662,1.662,0,0,1,1.386-.462h5.431a1.249,1.249,0,0,1,.924.347,1.341,1.341,0,0,1,.232.924v.577l-.232.694a6.937,6.937,0,0,1,1.965-1.156,13.457,13.457,0,0,1,2.426-.867,13.935,13.935,0,0,1,3.583-.4,8.105,8.105,0,0,1,5.72,2.08,6.414,6.414,0,0,1,2.254,4.853,13.527,13.527,0,0,1-.4,2.6q-.408,1.793-.925,3.987t-.924,4.391a20.912,20.912,0,0,0-.4,3.7,3.311,3.311,0,0,0,.751,2.254,2.538,2.538,0,0,0,2.022.867,3.9,3.9,0,0,0,3.063-1.386,13.224,13.224,0,0,0,2.021-3.12,18.225,18.225,0,0,0,1.386-4.507,1.329,1.329,0,0,1,.463-.462,2.668,2.668,0,0,1,1.5-.462,3.12,3.12,0,0,1,2.427.924,38.086,38.086,0,0,1-2.659,8.783,21.8,21.8,0,0,1-3.987,6.009,8.52,8.52,0,0,1-6.53,2.657,8.9,8.9,0,0,1-3.813-.809,9.886,9.886,0,0,1-3-2.138,9.586,9.586,0,0,1-1.964-3,8.558,8.558,0,0,1-.694-3.293,17.411,17.411,0,0,1,.347-3.293q.347-1.792.694-3.641t.693-3.408A12.112,12.112,0,0,0,580,434.1a5.793,5.793,0,0,0-.578-2.716,1.945,1.945,0,0,0-1.849-1.1,3.809,3.809,0,0,0-1.156.232,4.565,4.565,0,0,0-1.618,1.156,10.718,10.718,0,0,0-2.08,2.946,24.543,24.543,0,0,0-1.5,4.276q-.692,2.6-1.444,6.355t-1.908,9.071a1.923,1.923,0,0,1-.115.578,2.9,2.9,0,0,1-.347.809,2.331,2.331,0,0,1-1.5.462h-5.778c-.538,0-.847-.115-.924-.347a1.038,1.038,0,0,1-.347-.924v-.578Z" transform="translate(-449.21 -395.86)" fill="#fff"/>
    </g>
    <g transform="matrix(1, 0, 0, 1, -1547, 1710)" filter="url(#Path_5)">
      <path id="Path_5-2" data-name="Path 5" d="M765.091,374.234a3.069,3.069,0,0,1,1.733.462,3.97,3.97,0,0,1,.578.463,38.069,38.069,0,0,1-2.657,8.782,21.832,21.832,0,0,1-3.987,6.009,8.523,8.523,0,0,1-6.53,2.657,8.308,8.308,0,0,1-5.546-1.848,10.149,10.149,0,0,1-3.12-4.507,15.91,15.91,0,0,1-3.8,4.507,8.209,8.209,0,0,1-5.325,1.848,6.942,6.942,0,0,1-3.815-.982,7.109,7.109,0,0,1-2.448-2.658,11.884,11.884,0,0,1-1.252-3.928,31.226,31.226,0,0,1-.341-4.68,32.468,32.468,0,0,1,1.1-7.28,27.006,27.006,0,0,1,2.775-6.761,16.527,16.527,0,0,1,4.448-5.027,9.859,9.859,0,0,1,6.01-1.964,8.131,8.131,0,0,1,3.524.74,6.449,6.449,0,0,1,2.484,1.99l4.045-18.565a1.023,1.023,0,0,1,.116-.461,3.869,3.869,0,0,0,.173-.4,1.124,1.124,0,0,1,.289-.405,1.5,1.5,0,0,1,1.271-.462h5.546a1.038,1.038,0,0,1,.924.347.669.669,0,0,1,.232.462v.924q-2.2,9.36-3.93,17.1-.691,3.352-1.386,6.645t-1.213,6.066q-.52,2.774-.867,4.854a20.85,20.85,0,0,0-.347,2.889,3.311,3.311,0,0,0,.752,2.253,2.536,2.536,0,0,0,2.022.866,3.9,3.9,0,0,0,3.062-1.386,13.209,13.209,0,0,0,2.022-3.121,18.222,18.222,0,0,0,1.387-4.506,1.306,1.306,0,0,1,.463-.463,2.854,2.854,0,0,1,1.617-.462m-28.311,5.984a6.671,6.671,0,0,0,.525,2.85,1.851,1.851,0,0,0,1.813,1.1,4.049,4.049,0,0,0,3.1-1.512,15.239,15.239,0,0,0,2.338-3.605,20.918,20.918,0,0,0,1.52-4.479,19.63,19.63,0,0,0,.527-4.13,6.271,6.271,0,0,0-.527-2.792,1.864,1.864,0,0,0-1.811-1.047,4.07,4.07,0,0,0-2.984,1.4,13.046,13.046,0,0,0-2.338,3.49,23.359,23.359,0,0,0-1.578,4.477,18.068,18.068,0,0,0-.585,4.247" transform="translate(-582.18 -332.3)" fill="#fff"/>
    </g>
    <g transform="matrix(1, 0, 0, 1, -1547, 1710)" filter="url(#Path_6)">
      <path id="Path_6-2" data-name="Path 6" d="M898.311,422.886a6.406,6.406,0,0,1,4.332,1.445,8.278,8.278,0,0,1,2.427,3.582,9.921,9.921,0,0,1,.4,4.68,12.2,12.2,0,0,1-1.733,4.8,11.68,11.68,0,0,1-3.929,3.813,12.269,12.269,0,0,1-6.125,1.675,8.043,8.043,0,0,0,.925,4.416,3.886,3.886,0,0,0,3.7,1.824,6.817,6.817,0,0,0,4.563-1.618,16.337,16.337,0,0,0,3.179-3.582,25.293,25.293,0,0,0,2.657-5.2,1.311,1.311,0,0,1,.462-.462,2.852,2.852,0,0,1,1.618-.462,3.063,3.063,0,0,1,1.733.462,3.9,3.9,0,0,1,.578.462,34.889,34.889,0,0,1-3.467,8.783,23.419,23.419,0,0,1-5.084,6.008,11.687,11.687,0,0,1-7.858,2.659,11.978,11.978,0,0,1-4.138-.753,9.973,9.973,0,0,1-3.6-2.262,11.345,11.345,0,0,1-2.509-3.884,14.567,14.567,0,0,1-.966-5.509,30.858,30.858,0,0,1,.853-7.015,28.765,28.765,0,0,1,2.451-6.725,16.56,16.56,0,0,1,4-5.1,8.316,8.316,0,0,1,5.524-2.03m1.5,7.281q-1.5,0-3.063,2.566a20.653,20.653,0,0,0-2.369,5.87,7.582,7.582,0,0,0,4.1-1.71,7.493,7.493,0,0,0,2.137-2.85,4.85,4.85,0,0,0,.348-2.679q-.233-1.2-1.156-1.2" transform="translate(-705.12 -395.86)" fill="#fff"/>
    </g>
    <g transform="matrix(1, 0, 0, 1, -1547, 1710)" filter="url(#Path_7)">
      <path id="Path_7-2" data-name="Path 7" d="M1014.789,422.887a1.249,1.249,0,0,1,.923.347,1.336,1.336,0,0,1,.233.924v.577q-1.388,6.011-2.427,11.209-.464,2.2-.925,4.45t-.809,4.217q-.346,1.966-.519,3.525a23.339,23.339,0,0,0-.174,2.369q0,3.583,1.83,4.8a4.113,4.113,0,0,0,3.947.4,8.786,8.786,0,0,0,3.947-3.524,12.708,12.708,0,0,0,1.832-7.222,7.609,7.609,0,0,0-.348-2.947,2.385,2.385,0,0,1-.346-1.1q0-.693,1.155-.694a6.511,6.511,0,0,1,2.6.579,7.229,7.229,0,0,1,2.369,1.675,9.337,9.337,0,0,1,1.733,2.658,8.287,8.287,0,0,1,.693,3.408,11.976,11.976,0,0,1-1.271,5.431,15.217,15.217,0,0,1-3.351,4.449,16.737,16.737,0,0,1-4.795,3.062,14.208,14.208,0,0,1-5.606,1.156,11.711,11.711,0,0,1-6.24-1.5,12.215,12.215,0,0,1-3.813-3.582,13.9,13.9,0,0,1-1.964-4.45,17.548,17.548,0,0,1-.578-4.1,33.64,33.64,0,0,1,.41-4.16q.41-2.887,1-5.778.584-3.349,1.524-7.28v-.462a1.106,1.106,0,0,0-.353-.809,2.3,2.3,0,0,0-1.524-.346h-3.018a2.543,2.543,0,0,0-1.5.346.664.664,0,0,0-.231.462,1.038,1.038,0,0,1-.116.463,1.91,1.91,0,0,0-.115.461l-1.271,6.819a3.789,3.789,0,0,1-.578.462,3.156,3.156,0,0,1-1.618.347,2.793,2.793,0,0,1-1.619-.347,3.629,3.629,0,0,1-.576-.462l3-13.983a1.89,1.89,0,0,1,.116-.577,1.718,1.718,0,0,1,.462-.809,2.07,2.07,0,0,1,1.5-.462Z" transform="translate(-789.58 -395.86)" fill="#fff"/>
    </g>
    <g transform="matrix(1, 0, 0, 1, -1547, 1710)" filter="url(#Path_8)">
      <path id="Path_8-2" data-name="Path 8" d="M576.806,620.194V635.08h-4.53V620.194h-5.3v-3.867H582.1v3.867Z" transform="translate(-455.57 -547.41)" fill="#fff"/>
    </g>
    <g transform="matrix(1, 0, 0, 1, -1547, 1710)" filter="url(#Path_9)">
      <path id="Path_9-2" data-name="Path 9" d="M667.282,644.251a3.341,3.341,0,0,0-.569-.106c-.186-.017-.367-.027-.544-.027a3.1,3.1,0,0,0-1.469.317,3,3,0,0,0-.954.766,2.906,2.906,0,0,0-.516.978,3.247,3.247,0,0,0-.159.924v6.761h-4.344V640.691h4.185V642.6h.053a4.291,4.291,0,0,1,1.43-1.652,3.677,3.677,0,0,1,2.146-.641c.176,0,.349.009.515.026a2.017,2.017,0,0,1,.411.08Z" transform="translate(-527.46 -566.2)" fill="#fff"/>
    </g>
    <g transform="matrix(1, 0, 0, 1, -1547, 1710)" filter="url(#Path_10)">
      <path id="Path_10-2" data-name="Path 10" d="M726.523,642.285a7.623,7.623,0,0,1,2.714-1.668,9.313,9.313,0,0,1,3.166-.556,8.469,8.469,0,0,1,2.82.41,4.206,4.206,0,0,1,1.868,1.272,5.432,5.432,0,0,1,1.046,2.172,12.833,12.833,0,0,1,.331,3.112v6.648h-3.973v-1.4h-.079a3.277,3.277,0,0,1-1.524,1.272,5.42,5.42,0,0,1-2.212.45,6.732,6.732,0,0,1-1.642-.213,4.8,4.8,0,0,1-1.549-.688,3.719,3.719,0,0,1-1.153-1.272,3.919,3.919,0,0,1-.45-1.96,3.326,3.326,0,0,1,.781-2.3,5.114,5.114,0,0,1,2.013-1.351,10.673,10.673,0,0,1,2.741-.636,28.213,28.213,0,0,1,2.94-.159V645.2a1.617,1.617,0,0,0-.688-1.443,2.974,2.974,0,0,0-1.7-.463,4.213,4.213,0,0,0-1.787.4,5.709,5.709,0,0,0-1.469.954Zm7.972,5.642h-.555q-.715,0-1.444.066a5.913,5.913,0,0,0-1.3.252,2.392,2.392,0,0,0-.94.543,1.246,1.246,0,0,0-.371.94,1.136,1.136,0,0,0,.172.635,1.335,1.335,0,0,0,.436.424,1.824,1.824,0,0,0,.61.225,3.5,3.5,0,0,0,.661.067,2.682,2.682,0,0,0,2.027-.729,2.72,2.72,0,0,0,.7-1.973Z" transform="translate(-580.07 -566.01)" fill="#fff"/>
    </g>
    <g transform="matrix(1, 0, 0, 1, -1547, 1710)" filter="url(#Path_11)">
      <path id="Path_11-2" data-name="Path 11" d="M825.31,655.207h-4.688l-5.191-13.19h4.795l2.781,8.555h.079l2.781-8.555H830.5Z" transform="translate(-650.23 -567.54)" fill="#fff"/>
    </g>
    <g transform="matrix(1, 0, 0, 1, -1547, 1710)" filter="url(#Path_12)">
      <path id="Path_12-2" data-name="Path 12" d="M927.9,647.236v.529a4.513,4.513,0,0,1-.027.5h-9.562a2.309,2.309,0,0,0,.331,1.007,2.884,2.884,0,0,0,.715.781,3.512,3.512,0,0,0,2.106.7,3.654,3.654,0,0,0,1.748-.384,3.441,3.441,0,0,0,1.165-.993l3.02,1.907a6.116,6.116,0,0,1-2.45,2.08,8.124,8.124,0,0,1-3.536.728,8.427,8.427,0,0,1-2.807-.464,6.8,6.8,0,0,1-2.318-1.351,6.259,6.259,0,0,1-1.562-2.184,7.307,7.307,0,0,1-.57-2.967,7.412,7.412,0,0,1,.557-2.926,6.619,6.619,0,0,1,1.509-2.225,6.736,6.736,0,0,1,2.251-1.417,7.71,7.71,0,0,1,2.808-.5,7.118,7.118,0,0,1,2.675.49,5.815,5.815,0,0,1,2.092,1.418,6.557,6.557,0,0,1,1.365,2.251,8.676,8.676,0,0,1,.49,3.02m-4-1.669a2.605,2.605,0,0,0-.649-1.774,2.453,2.453,0,0,0-1.947-.741,3.3,3.3,0,0,0-1.165.2,3.033,3.033,0,0,0-.927.543,2.7,2.7,0,0,0-.635.808,2.37,2.37,0,0,0-.265.966Z" transform="translate(-727.57 -566.01)" fill="#fff"/>
    </g>
    <g transform="matrix(1, 0, 0, 1, -1547, 1710)" filter="url(#Rectangle_1)">
      <rect id="Rectangle_1-2" data-name="Rectangle 1" width="4.422" height="20.023" transform="translate(208.37 67.64)" fill="#fff"/>
    </g>
    <g transform="matrix(1, 0, 0, 1, -1547, 1710)" filter="url(#Path_13)">
      <path id="Path_13-2" data-name="Path 13" d="M1122.08,326.354a9.955,9.955,0,0,0-10.006,14.882L1109.9,345.3a.819.819,0,0,0,1.05,1.133l4.292-1.876a9.959,9.959,0,1,0,6.832-18.208m3.577,6.259-4.88,9.82a.6.6,0,0,1-1.13-.17l-.62-3.777a.6.6,0,0,0-.454-.487l-3.725-.88a.6.6,0,0,1-.092-1.139l10.135-4.19a.6.6,0,0,1,.766.823" transform="translate(-880.87 -320.14)" fill="#ff6549"/>
    </g>
  </g>
</svg>
